PathFileType	4	(X/Y/Z)	Patient4_TMGait_0pt4_02_left_42.trc.trc
DataRate	CameraRate	NumFrames	NumMarkers	Units	OrigDataRate	OrigDataStartFrame	OrigNumFrames
74.468085106383	74.468085106383	5	33	mm	74.468085106383	106	       141
Frame#	Time	Sacral			L.Shoulder			Chest			R.Shoulder			Neck			R.ASIS			L.ASIS			R.Thigh.Superior			R.Thigh.Lateral			R.Thigh.Inferior			R.Patella			L.Thigh.Superior			L.Thigh.Lateral			L.Thigh.Inferior			L.Patella			L.Shank.Superior			L.Shank.Lateral			L.Shank.Inferior			R.Shank.Superior			R.Shank.Lateral			R.Shank.Inferior			R.Heel			R.Midfoot.Superior			R.Midfoot.Lateral			R.Toe			L.Heel			L.Midfoot.Lateral			L.Midfoot.Superior			L.Toe			L.Elbow			L.Wrist			R.Elbow			R.Wrist			
		X1	Y1	Z1	X2	Y2	Z2	X3	Y3	Z3	X4	Y4	Z4	X5	Y5	Z5	X6	Y6	Z6	X7	Y7	Z7	X8	Y8	Z8	X9	Y9	Z9	X10	Y10	Z10	X11	Y11	Z11	X12	Y12	Z12	X13	Y13	Z13	X14	Y14	Z14	X15	Y15	Z15	X16	Y16	Z16	X17	Y17	Z17	X18	Y18	Z18	X19	Y19	Z19	X20	Y20	Z20	X21	Y21	Z21	X22	Y22	Z22	X23	Y23	Z23	X24	Y24	Z24	X25	Y25	Z25	X26	Y26	Z26	X27	Y27	Z27	X28	Y28	Z28	X29	Y29	Z29	X30	Y30	Z30	X31	Y31	Z31	X32	Y32	Z32	X33	Y33	Z33	

106	57.370000000000	816.238816110400	1006.566008410210	565.628974077595	975.610490969780	1434.707897298090	369.585738857721	1092.999357156365	1370.072939433122	521.998323237587	1024.499341558265	1442.364945435066	703.182474016866	970.192959200631	1498.756862780825	526.641971067475	1054.001287606982	944.795132181508	664.308099704525	1017.883320724616	968.709396134473	392.874846465551	1084.945635139329	739.091683793644	630.759849650451	1003.933380524036	632.877383071517	697.047523157011	1072.362555670624	578.416633807909	611.422212778815	1068.337663539273	491.936820085008	616.628272402982	1112.385150905121	795.156489231171	418.377925416412	1077.481298837497	668.431392693369	335.293807079433	1187.253455725774	614.205558469202	393.312468803859	1209.108097140991	529.137381402295	382.644507767557	1154.303502441517	455.933103951134	371.691542835684	1022.619862386841	388.682601822819	325.161825002993	1041.152273514909	255.843187275680	369.684270246357	1039.598763631897	403.213138782131	626.153414405219	969.523938134460	300.787244858543	690.601170216692	1005.291793575739	205.430133380941	625.196268583239	867.930750874998	42.163657292046	600.283719844598	1038.617346311484	97.154961703339	633.385439663841	951.702729348886	36.370124632834	674.234161508507	1159.697639772301	46.628099316183	660.459761872298	872.438110356898	157.353273342379	411.971266942136	930.382415872063	123.470301967567	326.723446807719	1033.895581011612	146.202489758919	343.076036664197	1124.569033888012	47.990571797258	305.412988220304	887.931364667217	1087.680974578370	272.104945648979	900.840237794122	826.157485002671	278.229093855242	1098.025950809833	1113.990985919981	844.979200106137	1345.784124903037	1080.481382532647	796.423148639167	
107	57.383428571429	815.421652322206	1007.621530939357	567.329551236207	974.998349364596	1434.946920136177	370.163555124975	1093.525709562249	1369.726162471115	521.421884124059	1027.193919141578	1442.518221176047	703.218496863904	971.368331591953	1498.945077561830	527.195345624551	1053.454061579403	944.493299975238	663.872502992934	1015.385099813658	969.250036058236	392.732005916067	1082.242445706790	738.407688773502	630.085341326777	1000.811710460200	632.882400529305	697.140365787180	1068.084861314476	577.874008990583	611.139506027437	1063.416087203364	491.673425633472	616.502852677912	1109.762432260789	796.278576041115	418.704810318340	1075.565356942713	669.435227466488	335.574529929125	1184.989261767514	615.565875525103	394.200914126824	1208.055835223725	531.964780000582	383.254543373440	1156.723474618759	457.995221356634	371.826461352479	1029.558857054625	383.410519859884	324.873864654099	1056.063985153689	251.621245980940	368.953893860253	1034.600291989457	403.053983044566	626.167840089140	964.555358693344	300.691043039425	690.735265361742	1000.019063335992	205.335692933175	625.219341871979	862.499386960726	42.115407598524	600.328100589850	1033.195059819511	97.133240553789	633.382406458784	946.270504509446	36.329491774683	674.228720081832	1154.247678596187	46.638480596524	660.410196308336	894.109297297506	141.747117415654	410.952736679105	954.100644063352	112.852599083287	325.353736837286	1055.731343403942	142.481707995727	341.836898227723	1152.952505713132	51.460833341410	303.314995337037	879.783113664950	1089.586081559296	275.069879949275	887.978369627579	827.824013955708	283.595252299956	1104.366692100566	1115.086460188113	843.729362698669	1352.333100313828	1095.853542753485	791.782785262600	
108	57.396857142857	814.614890152140	1008.610061053587	568.880929623805	974.447532941755	1435.134103280320	370.616985088879	1094.085931308895	1369.289073352607	520.707978733023	1029.918874639679	1442.542543942369	703.103173791902	972.608319698975	1499.035692878466	527.671375274591	1052.953869544909	944.144852999311	663.246666693106	1012.931536119701	969.674291704924	392.391820682888	1079.540706426841	737.711922572348	629.258416021853	997.745643688940	632.873568640893	697.179563708954	1063.786475027622	577.320752325030	610.783344273710	1058.483226890427	491.410708531800	616.371644161185	1106.787879415222	796.805213752159	418.892032072322	1072.999703385646	669.918045793590	335.718865617202	1181.805971015888	616.105685408348	395.128878849734	1205.999165785501	534.197001398717	383.955803512769	1158.360883535588	459.672552953264	372.061731572606	1036.575993520626	377.667141330808	324.228767988664	1071.081263313303	247.493732888980	368.259042817267	1029.592433019683	402.883273282483	626.173006722102	959.577400909905	300.588719982479	690.872379977487	994.730028037681	205.233825755070	625.247878599442	857.058375722663	42.072407701582	600.370499722039	1027.768349733557	97.107351861610	633.379333742666	940.838365007070	36.286567653550	674.226028679026	1148.800067402352	46.638098446349	660.367041157965	916.685997554489	126.426597648520	409.457604654941	978.809379003052	102.609861380413	323.857189485251	1077.992682930424	139.137567976275	340.843538067937	1181.546743439847	55.726836222484	302.105578209389	872.221890404230	1091.508051805861	277.891481208063	876.034932784115	829.596090510429	288.514541582600	1110.561659995991	1115.966198330518	842.154335925551	1357.908860353545	1110.537262153137	786.952603303593	
109	57.410285714286	813.836244277490	1009.515038308194	570.265195405174	973.970463518984	1435.264138231039	370.927027915840	1094.670572637960	1368.768807975628	519.862019602667	1032.627009725346	1442.443952510903	702.828603176317	973.889219530005	1499.032687499184	528.043000194226	1052.510104438101	943.757776185512	662.455682280046	1010.563930574880	969.969674321990	391.871918384378	1076.871190200284	737.005908007521	628.322998463571	994.749518900326	632.846047449680	697.172704691936	1059.505118092167	576.754669061054	610.373563491979	1053.579232886990	491.141979448028	616.240778888479	1103.510022152528	796.742343185848	418.945336101610	1069.836821871136	669.904303822970	335.695872530299	1177.786096801684	615.858505058333	396.046130056887	1203.025020811186	535.846400364650	384.726381805216	1159.229068840900	460.993031692352	372.400828714258	1043.608328836437	371.687903808623	323.241668539524	1085.922691424988	243.693694518989	367.663428384417	1024.603222827124	402.696464496446	626.169854781153	954.607452888037	300.483475634093	691.017121951592	989.437656660765	205.122512082204	625.284391926791	851.611395640074	42.035666425773	600.413821255327	1022.336038195652	97.075945091347	633.375742955127	935.407154882611	36.242527341890	674.226528015340	1143.357491613604	46.626360112270	660.336825537794	939.726119419898	111.923775440068	407.555755642394	1004.066028799996	93.120473716041	322.352076241276	1100.265995693709	136.394747429466	340.200013755049	1209.786331452095	60.824385376488	302.004931864490	865.295650886408	1093.393668116936	280.522262078483	865.056131044120	831.403389470364	292.920987607667	1116.608311918582	1116.645893547808	840.279834233903	1362.604469619885	1124.387998322084	781.978397928118	
110	57.423714285714	813.109475627689	1010.322128958815	571.463365928594	973.575885710594	1435.335286923520	371.076794081916	1095.269846133073	1368.177167160296	518.890431493607	1035.271300194166	1442.234575423657	702.388620854541	975.180781380698	1498.945577192223	528.277488298925	1052.133659945251	943.343169665568	661.526771443682	1008.324664346343	970.129974458403	391.192202921063	1074.265636273029	736.290611931918	627.327312338950	991.831294961443	632.797276121352	697.124629106263	1055.277618229490	576.174049866536	609.930809711639	1048.741009711468	490.860638905859	616.113326211775	1099.993482824701	796.116668996110	418.864816136181	1066.148757623584	669.432944059019	335.481025261044	1173.047852202223	614.885302957829	396.888183865203	1199.243476604429	536.935877200927	385.529633488514	1159.354399879600	461.983289274429	372.823210998061	1050.525581142799	365.693470910353	321.970939377229	1100.273172254433	240.389176176448	367.212477555538	1019.659317517510	402.492313934427	626.158428837084	949.660834082054	300.380353427872	691.172904324761	984.153665925819	205.000993210880	625.330663047976	846.161881799085	42.006883036955	600.459223945725	1016.897470325754	97.037739002893	633.371707446383	929.977116818233	36.198914469161	674.230708834860	1137.921822937743	46.601926503786	660.323286818891	962.701626829984	98.664961780496	405.373012237337	1029.326389883235	84.650423686674	320.970478813820	1122.090422542423	134.378761645085	339.972284254983	1237.089864271614	66.669684892586	303.120441898589	859.038614365305	1095.196172037912	282.907188368598	855.091748522973	833.183016549421	296.755592343249	1122.490746394243	1117.147271896807	838.130815809780	1366.522057410545	1137.279236902842	776.903687119648	
